<?xml version="1.0" encoding="UTF-8" standalone="no"?>
<svg width="250px" height="250px" viewBox="0 0 250 250" version="1.1" xmlns="http://www.w3.org/2000/svg" xmlns:xlink="http://www.w3.org/1999/xlink" style="background: #F5E85B;">
    <!-- Generator: Sketch 3.8.1 (29687) - http://www.bohemiancoding.com/sketch -->
    <title>llustration_creat_stories</title>
    <desc>Created with Sketch.</desc>
    <defs></defs>
    <g id="Landing" stroke="none" stroke-width="1" fill="none" fill-rule="evenodd">
        <g id="llustration_creat_stories">
            <path d="M38.5,41.5 L61.5,65.5" id="Line" stroke="#FFF691" stroke-width="3" stroke-linecap="round" stroke-linejoin="round"></path>
            <polygon id="Rectangle-57" fill="#DCD051" points="51 66 61.6603006 55.8313439 201 106 191 116 51 116"></polygon>
            <rect id="Rectangle-57" fill="#FFF691" x="61" y="56" width="140" height="50"></rect>
            <rect id="Rectangle-57" fill="#999457" x="71" y="66" width="120" height="10"></rect>
            <rect id="Rectangle-57" fill="#999457" x="71" y="81" width="60" height="10"></rect>
            <rect id="Rectangle-57" fill="#999457" x="71" y="96" width="20" height="4"></rect>
            <rect id="Rectangle-57" fill="#999457" x="101" y="96" width="20" height="4"></rect>
            <rect id="Rectangle-57" fill="#999457" x="124" y="96" width="20" height="4"></rect>
            <polygon id="Rectangle-57" fill="#DCD051" points="51 136 61.6603006 125.831344 201 176 191 186 51 186"></polygon>
            <rect id="Rectangle-57" fill="#FFF691" x="61" y="126" width="140" height="50"></rect>
            <rect id="Rectangle-57" fill="#999457" x="71" y="136" width="120" height="10"></rect>
            <rect id="Rectangle-57" fill="#999457" x="71" y="151" width="60" height="10"></rect>
            <rect id="Rectangle-57" fill="#999457" x="71" y="166" width="20" height="4"></rect>
            <rect id="Rectangle-57" fill="#999457" x="101" y="166" width="20" height="4"></rect>
            <rect id="Rectangle-57" fill="#999457" x="124" y="166" width="20" height="4"></rect>
            <path d="M38.5,11.5 L61.5,35.5" id="Line" stroke="#FFF691" stroke-width="3" stroke-linecap="round" stroke-linejoin="round"></path>
            <path d="M108.5,11.5 L131.5,35.5" id="Line" stroke="#FFF691" stroke-width="3" stroke-linecap="round" stroke-linejoin="round"></path>
            <path d="M178.5,191.5 L222.256096,237.158535" id="Line" stroke="#FFF691" stroke-width="3" stroke-linecap="round" stroke-linejoin="round"></path>
            <path d="M208.5,171.5 L231.5,195.5" id="Line" stroke="#FFF691" stroke-width="3" stroke-linecap="round" stroke-linejoin="round"></path>
            <path d="M208.5,81.5 L231.5,105.5" id="Line" stroke="#FFF691" stroke-width="3" stroke-linecap="round" stroke-linejoin="round"></path>
            <path d="M188.5,21.5 L211.5,45.5" id="Line" stroke="#FFF691" stroke-width="3" stroke-linecap="round" stroke-linejoin="round"></path>
            <path d="M88.5,211.5 L111.5,235.5" id="Line" stroke="#FFF691" stroke-width="3" stroke-linecap="round" stroke-linejoin="round"></path>
            <path d="M18.5,181.5 L62.2560963,227.158535" id="Line" stroke="#FFF691" stroke-width="3" stroke-linecap="round" stroke-linejoin="round"></path>
            <path d="M18.5,131.5 L41.5,155.5" id="Line" stroke="#FFF691" stroke-width="3" stroke-linecap="round" stroke-linejoin="round"></path>
        </g>
    </g>
</svg>